<svg width="54" height="59" viewBox="0 0 54 59" fill="none" xmlns="http://www.w3.org/2000/svg">
<path d="M9.37674 58.6966C9.08893 58.6966 8.80113 58.5527 8.65723 58.4088C8.22552 57.9771 8.36942 57.4015 8.65723 57.1137L10.0962 55.6747C11.3914 54.5235 12.9743 53.8039 14.845 53.8039H30.6742C32.4011 53.8039 34.1279 53.2283 35.5669 52.221L49.9571 42.4357C50.5327 42.004 50.9644 41.4284 50.9644 40.7089C50.9644 39.9894 50.8205 39.2698 50.2449 38.8381C49.3815 37.9747 48.2303 37.8308 47.223 38.5503L31.9694 48.3357C31.8255 48.4796 31.6815 48.4796 31.3937 48.4796H19.4499C18.8743 48.4796 18.4426 48.0479 18.4426 47.4723C18.4426 46.8967 18.8743 46.4649 19.4499 46.4649H31.1059L46.2156 36.8235C47.9425 35.6723 50.2449 35.9601 51.6839 37.3991C52.5473 38.2625 53.1229 39.5577 52.979 40.8528C52.8351 42.1479 52.1156 43.2991 51.1083 44.0186L36.7181 53.8039C34.9913 54.9552 32.8328 55.6747 30.6742 55.6747H14.845C13.5499 55.6747 12.3987 56.1064 11.5353 56.9698L10.0962 58.4088C9.95235 58.6966 9.66454 58.6966 9.37674 58.6966Z" fill="#39ABA4"/>
<path d="M1.02947 48.3356C0.88557 48.3356 0.597753 48.3356 0.453851 48.1917C0.0221451 47.9039 0.0221583 47.1844 0.309962 46.8966C7.50506 37.8307 17.4343 37.1112 24.3416 38.1186C28.9465 38.8381 32.544 42.8673 32.544 47.4722C32.544 48.0478 32.1123 48.4795 31.5367 48.4795C30.9611 48.4795 30.5294 48.0478 30.5294 47.4722C30.5294 43.7307 27.7952 40.5649 24.0538 39.9893C17.5782 39.1259 8.36847 39.7015 1.74898 48.0478C1.60508 48.1917 1.31728 48.3356 1.02947 48.3356Z" fill="#39ABA4"/>
<path d="M4.3391 22.5773C3.18788 22.5773 2.03668 22.1456 1.31717 21.2821C0.453756 20.4187 -0.121865 19.1236 0.0220373 17.8285C0.165939 16.5334 0.885454 15.3822 1.89277 14.6627L16.283 4.87733C18.0098 3.72611 20.1683 3.0066 22.3268 3.0066H38.1561C39.4512 3.0066 40.6024 2.57489 41.4658 1.71148L42.9048 0.272463C43.3365 -0.159243 43.9122 -0.0153412 44.2 0.272463C44.6317 0.704169 44.4878 1.27978 44.2 1.56758L42.7609 3.0066C41.4658 4.15782 39.8829 4.87733 38.0122 4.87733H22.183C20.4561 4.87733 18.7293 5.45293 17.2903 6.46025L2.90008 16.2456C2.32447 16.6773 1.89277 17.2529 1.89277 17.9724C1.89277 18.6919 2.03667 19.4114 2.61228 19.8431C3.47569 20.7065 4.62691 20.8504 5.63423 20.1309L20.8878 10.3456C21.0317 10.2017 21.1756 10.2017 21.4634 10.2017H33.4073C33.9829 10.2017 34.4146 10.6334 34.4146 11.209C34.4146 11.7846 33.9829 12.2163 33.4073 12.2163H21.7512L6.64154 21.8578C6.06593 22.2895 5.20251 22.5773 4.3391 22.5773Z" fill="#39ABA4"/>
<path d="M33.2623 20.9943C31.6794 20.9943 30.0965 20.8504 28.6575 20.7065C24.0526 19.987 20.4551 15.9578 20.4551 11.3529C20.4551 10.7773 20.8868 10.3456 21.4624 10.3456C22.038 10.3456 22.4697 10.7773 22.4697 11.3529C22.4697 15.0943 25.2038 18.2602 28.9453 18.8358C35.4209 19.6992 44.6306 19.1236 51.2501 10.7773C51.5379 10.3456 52.2574 10.3456 52.5452 10.6334C52.9769 10.9212 52.9769 11.6407 52.6891 11.9285C47.0769 18.9797 39.594 20.9943 33.2623 20.9943Z" fill="#39ABA4"/>
<path d="M8.2241 38.8382C8.08019 38.8382 7.79238 38.8382 7.64848 38.6943L7.21677 38.4065C5.92165 37.5431 5.48995 35.9601 5.92166 34.3772C6.35336 32.9382 7.79237 31.9309 9.3753 31.9309H11.6777C12.3972 31.9309 12.9729 31.4992 13.2607 30.7797L13.9802 28.6211C14.4119 27.1821 15.8509 26.1748 17.4338 26.1748C19.0167 26.1748 20.3118 27.1821 20.8875 28.6211L21.607 30.7797C21.8948 31.4992 22.4704 31.9309 23.1899 31.9309H25.4923C26.7875 31.9309 27.9387 32.5065 28.5143 33.6577C29.2338 34.8089 29.2338 36.104 28.6582 37.2553C28.3704 37.687 27.7947 37.8309 27.363 37.687C26.9313 37.3992 26.7875 36.8235 26.9314 36.3918C27.2192 35.9601 27.2192 35.2406 26.9314 34.8089C26.7875 34.5211 26.3557 34.0894 25.4923 34.0894H23.1899C21.607 34.0894 20.3119 33.0821 19.7363 31.6431L19.0167 29.4845C18.7289 28.6211 18.0094 28.3333 17.4338 28.3333C16.8582 28.3333 16.1387 28.6211 15.8509 29.4845L15.1314 31.6431C14.6997 33.0821 13.2607 34.0894 11.6777 34.0894H9.3753C8.51188 34.0894 7.93629 34.665 7.79239 35.2406C7.64848 35.8162 7.64848 36.5357 8.36799 37.1114L8.7997 37.3992C9.2314 37.687 9.37531 38.2626 8.94361 38.6943C8.7997 38.6943 8.5119 38.8382 8.2241 38.8382Z" fill="#39ABA4"/>
<path d="M42.7613 35.8163C42.1856 35.8163 41.4661 35.6724 41.0344 35.2407L39.5954 34.0895C39.1637 33.8017 38.732 33.8017 38.3003 34.0895L36.8613 35.2407C35.71 35.9602 34.4149 35.9602 33.2637 35.2407C32.1125 34.5212 31.6808 33.0822 32.1125 31.787L32.6881 30.0602C32.832 29.6285 32.6881 29.0529 32.2564 28.7651L30.8174 27.6139C29.6662 26.8944 29.2345 25.4553 29.6662 24.1602C30.0979 22.8651 31.2491 22.0017 32.5442 22.0017H34.4149C34.8466 22.0017 35.1344 21.8578 35.2783 21.4261C35.5661 20.9944 36.1418 20.8505 36.5735 21.1383C37.0052 21.4261 37.1491 22.0017 36.8613 22.4334C36.2857 23.2968 35.2783 23.8724 34.271 23.8724H32.4003C31.6808 23.8724 31.393 24.448 31.393 24.5919C31.393 24.7358 31.2491 25.4553 31.8247 25.8871L33.2637 27.0383C34.271 27.7578 34.7027 29.1968 34.4149 30.4919L33.8393 32.2187C33.5515 32.9383 34.1271 33.37 34.271 33.5139C34.4149 33.6578 34.9905 33.9456 35.5662 33.5139L37.0052 32.3626C38.0125 31.6431 39.4515 31.6431 40.6027 32.3626L42.0417 33.5139C42.6174 33.9456 43.193 33.6578 43.3369 33.5139C43.4808 33.37 43.9125 32.9383 43.7686 32.2187L43.1929 30.4919C42.7612 29.1968 43.1929 27.9017 44.3442 27.0383L45.7832 25.8871C46.3588 25.4553 46.2149 24.8797 46.2149 24.5919C46.2149 24.448 45.9271 23.8724 45.2076 23.8724H43.3369C42.0417 23.8724 40.8905 23.009 40.4588 21.7139V21.57C40.3149 20.9944 40.6027 20.5627 41.0344 20.4188C41.61 20.2749 42.0417 20.5627 42.1856 20.9944V21.1383C42.3295 21.57 42.7612 21.8578 43.1929 21.8578H45.0637C46.3588 21.8578 47.51 22.7212 47.9417 24.0163C48.3734 25.3114 47.9417 26.6066 46.7905 27.47L45.3515 28.6212C44.9198 28.909 44.7759 29.3407 44.9198 29.9163L45.4954 31.6431C45.9271 32.9383 45.4954 34.2334 44.3442 35.0968C44.0564 35.6724 43.4808 35.8163 42.7613 35.8163Z" fill="#39ABA4"/>
<path d="M18.8748 24.3041C17.148 24.3041 15.709 22.8651 15.709 21.1383C15.709 19.4114 17.148 17.9724 18.8748 17.9724C20.6016 17.9724 22.0407 19.4114 22.0407 21.1383C22.0407 22.8651 20.6016 24.3041 18.8748 24.3041ZM18.8748 19.8431C18.1553 19.8431 17.5797 20.4187 17.5797 21.1383C17.5797 21.8578 18.1553 22.4334 18.8748 22.4334C19.5943 22.4334 20.1699 21.8578 20.1699 21.1383C20.1699 20.4187 19.5943 19.8431 18.8748 19.8431Z" fill="#39ABA4"/>
<path d="M4.05003 31.9309C2.0354 31.9309 0.308594 30.2041 0.308594 28.1895C0.308594 26.1748 2.0354 24.448 4.05003 24.448C6.06466 24.448 7.79149 26.1748 7.79149 28.1895C7.79149 30.348 6.06466 31.9309 4.05003 31.9309ZM4.05003 26.4626C3.04272 26.4626 2.32321 27.326 2.32321 28.1895C2.32321 29.1968 3.18662 29.9163 4.05003 29.9163C5.05735 29.9163 5.77685 29.0529 5.77685 28.1895C5.92075 27.326 5.05735 26.4626 4.05003 26.4626Z" fill="#39ABA4"/>
</svg>
