
<svg width="12" height="7" viewBox="0 0 12 7" fill="none" xmlns="http://www.w3.org/2000/svg">
<path id="Vector" d="M0.237154 0.314241C0.395257 0.156138 0.582451 0.0770869 0.798736 0.0770869C1.0146 0.0770869 1.20158 0.156138 1.35968 0.314241L5.99209 4.94665L10.6403 0.298431C10.7879 0.150869 10.9723 0.0770874 11.1937 0.0770874C11.415 0.0770874 11.6047 0.156139 11.7628 0.314242C11.9209 0.472344 12 0.659538 12 0.875823C12 1.09169 11.9209 1.27867 11.7628 1.43677L6.43478 6.74902C6.37154 6.81227 6.30303 6.85717 6.22925 6.88373C6.15547 6.90987 6.07642 6.92294 5.99209 6.92294C5.90777 6.92294 5.82872 6.90987 5.75494 6.88373C5.68116 6.85717 5.61265 6.81227 5.54941 6.74902L0.221344 1.42096C0.073781 1.2734 -4.43495e-08 1.09169 -3.49138e-08 0.875822C-2.54597e-08 0.659537 0.079051 0.472344 0.237154 0.314241Z" fill="#141414"/>
</svg>
