<svg xmlns="http://www.w3.org/2000/svg" width="21" height="20" viewBox="0 0 21 20" fill="none">
  <path d="M5.49935 11.6667H12.166V10.0001H5.49935V11.6667ZM5.49935 9.16675H15.4993V7.50008H5.49935V9.16675ZM5.49935 6.66675H15.4993V5.00008H5.49935V6.66675ZM2.16602 18.3334V3.33342C2.16602 2.87508 2.32935 2.48258 2.65602 2.15592C2.98268 1.82925 3.3749 1.66619 3.83268 1.66675H17.166C17.6243 1.66675 18.0168 1.83008 18.3435 2.15675C18.6702 2.48342 18.8332 2.87564 18.8327 3.33342V13.3334C18.8327 13.7917 18.6693 14.1842 18.3427 14.5109C18.016 14.8376 17.6238 15.0006 17.166 15.0001H5.49935L2.16602 18.3334ZM4.79102 13.3334H17.166V3.33342H3.83268V14.2709L4.79102 13.3334Z" fill="#39ABA4"/>
</svg>