<svg xmlns="http://www.w3.org/2000/svg" width="32" height="32" viewBox="0 0 32 32" fill="none">
  <path d="M7.14202 5.71429H24.8563C25.805 5.71422 26.7178 6.07721 27.4074 6.72877C28.097 7.38033 28.5112 8.27108 28.5649 9.21829L28.5706 9.42857V22.5714C28.5707 23.5202 28.2077 24.4329 27.5561 25.1225C26.9045 25.8122 26.0138 26.2263 25.0666 26.28L24.8563 26.2857H7.14202C6.19329 26.2858 5.2805 25.9228 4.5909 25.2712C3.9013 24.6197 3.48716 23.7289 3.43345 22.7817L3.42773 22.5714V9.42857C3.42767 8.47984 3.79065 7.56705 4.44222 6.87745C5.09378 6.18785 5.98453 5.77371 6.93173 5.72L7.14202 5.71429ZM26.8563 12.4629L16.3946 17.9029C16.2933 17.9555 16.1824 17.9874 16.0686 17.9966C15.9548 18.0058 15.8402 17.9922 15.7317 17.9566L15.6037 17.9029L5.14202 12.4629V22.5714C5.14204 23.0734 5.33079 23.5569 5.6708 23.9262C6.01081 24.2954 6.47722 24.5233 6.97745 24.5646L7.14202 24.5714H24.8563C25.3584 24.5714 25.8421 24.3825 26.2114 24.0422C26.5807 23.702 26.8084 23.2353 26.8494 22.7349L26.8563 22.5714V12.4629ZM24.8563 7.42857H7.14202C6.64009 7.42859 6.15651 7.61734 5.78729 7.95735C5.41806 8.29736 5.19018 8.76377 5.14888 9.264L5.14202 9.42857V10.5303L15.9992 16.176L26.8563 10.5303V9.42857C26.8563 8.92646 26.6674 8.44273 26.3271 8.07348C25.9869 7.70422 25.5202 7.47646 25.0197 7.43543L24.8563 7.42857Z" fill="#39ABA4"/>
</svg>