<svg width="27" height="30" viewBox="0 0 27 30" fill="none" xmlns="http://www.w3.org/2000/svg">
<path d="M8.4974 3.33351C8.05537 3.33351 7.63145 3.50911 7.31889 3.82167C7.00632 4.13423 6.83073 4.55815 6.83073 5.00018C6.83073 5.44221 7.00632 5.86613 7.31889 6.17869C7.63145 6.49125 8.05537 6.66684 8.4974 6.66684C8.93942 6.66684 9.36335 6.49125 9.67591 6.17869C9.98847 5.86613 10.1641 5.44221 10.1641 5.00018C10.1641 4.55815 9.98847 4.13423 9.67591 3.82167C9.36335 3.50911 8.93942 3.33351 8.4974 3.33351ZM3.78073 3.33351C4.12507 2.35762 4.76363 1.51257 5.6084 0.914827C6.45316 0.317087 7.46254 -0.00390625 8.4974 -0.00390625C9.53225 -0.00390625 10.5416 0.317087 11.3864 0.914827C12.2312 1.51257 12.8697 2.35762 13.2141 3.33351H25.1641C25.6061 3.33351 26.03 3.50911 26.3426 3.82167C26.6551 4.13423 26.8307 4.55815 26.8307 5.00018C26.8307 5.44221 26.6551 5.86613 26.3426 6.17869C26.03 6.49125 25.6061 6.66684 25.1641 6.66684H13.2141C12.8697 7.64273 12.2312 8.48779 11.3864 9.08553C10.5416 9.68327 9.53225 10.0043 8.4974 10.0043C7.46254 10.0043 6.45316 9.68327 5.6084 9.08553C4.76363 8.48779 4.12507 7.64273 3.78073 6.66684H1.83073C1.3887 6.66684 0.964779 6.49125 0.652218 6.17869C0.339658 5.86613 0.164062 5.44221 0.164062 5.00018C0.164062 4.55815 0.339658 4.13423 0.652218 3.82167C0.964779 3.50911 1.3887 3.33351 1.83073 3.33351H3.78073ZM18.4974 13.3335C18.0554 13.3335 17.6314 13.5091 17.3189 13.8217C17.0063 14.1342 16.8307 14.5582 16.8307 15.0002C16.8307 15.4422 17.0063 15.8661 17.3189 16.1787C17.6314 16.4912 18.0554 16.6668 18.4974 16.6668C18.9394 16.6668 19.3633 16.4912 19.6759 16.1787C19.9885 15.8661 20.1641 15.4422 20.1641 15.0002C20.1641 14.5582 19.9885 14.1342 19.6759 13.8217C19.3633 13.5091 18.9394 13.3335 18.4974 13.3335ZM13.7807 13.3335C14.1251 12.3576 14.7636 11.5126 15.6084 10.9148C16.4532 10.3171 17.4625 9.99609 18.4974 9.99609C19.5323 9.99609 20.5416 10.3171 21.3864 10.9148C22.2312 11.5126 22.8697 12.3576 23.2141 13.3335H25.1641C25.6061 13.3335 26.03 13.5091 26.3426 13.8217C26.6551 14.1342 26.8307 14.5582 26.8307 15.0002C26.8307 15.4422 26.6551 15.8661 26.3426 16.1787C26.03 16.4912 25.6061 16.6668 25.1641 16.6668H23.2141C22.8697 17.6427 22.2312 18.4878 21.3864 19.0855C20.5416 19.6833 19.5323 20.0043 18.4974 20.0043C17.4625 20.0043 16.4532 19.6833 15.6084 19.0855C14.7636 18.4878 14.1251 17.6427 13.7807 16.6668H1.83073C1.3887 16.6668 0.964779 16.4912 0.652218 16.1787C0.339658 15.8661 0.164062 15.4422 0.164062 15.0002C0.164062 14.5582 0.339658 14.1342 0.652218 13.8217C0.964779 13.5091 1.3887 13.3335 1.83073 13.3335H13.7807ZM8.4974 23.3335C8.05537 23.3335 7.63145 23.5091 7.31889 23.8217C7.00632 24.1342 6.83073 24.5582 6.83073 25.0002C6.83073 25.4422 7.00632 25.8661 7.31889 26.1787C7.63145 26.4913 8.05537 26.6668 8.4974 26.6668C8.93942 26.6668 9.36335 26.4913 9.67591 26.1787C9.98847 25.8661 10.1641 25.4422 10.1641 25.0002C10.1641 24.5582 9.98847 24.1342 9.67591 23.8217C9.36335 23.5091 8.93942 23.3335 8.4974 23.3335ZM3.78073 23.3335C4.12507 22.3576 4.76363 21.5126 5.6084 20.9148C6.45316 20.3171 7.46254 19.9961 8.4974 19.9961C9.53225 19.9961 10.5416 20.3171 11.3864 20.9148C12.2312 21.5126 12.8697 22.3576 13.2141 23.3335H25.1641C25.6061 23.3335 26.03 23.5091 26.3426 23.8217C26.6551 24.1342 26.8307 24.5582 26.8307 25.0002C26.8307 25.4422 26.6551 25.8661 26.3426 26.1787C26.03 26.4913 25.6061 26.6668 25.1641 26.6668H13.2141C12.8697 27.6427 12.2312 28.4878 11.3864 29.0855C10.5416 29.6833 9.53225 30.0043 8.4974 30.0043C7.46254 30.0043 6.45316 29.6833 5.6084 29.0855C4.76363 28.4878 4.12507 27.6427 3.78073 26.6668H1.83073C1.3887 26.6668 0.964779 26.4913 0.652218 26.1787C0.339658 25.8661 0.164062 25.4422 0.164062 25.0002C0.164062 24.5582 0.339658 24.1342 0.652218 23.8217C0.964779 23.5091 1.3887 23.3335 1.83073 23.3335H3.78073Z" fill="#39ABA4"/>
</svg>
