<svg width="18" height="16" viewBox="0 0 18 16" fill="none" xmlns="http://www.w3.org/2000/svg">
<path d="M15.2491 8.47657L8.99911 14.6666L2.74911 8.47657C2.33687 8.07541 2.01215 7.59325 1.7954 7.06043C1.57866 6.52762 1.47458 5.9557 1.48973 5.38068C1.50487 4.80567 1.63891 4.24002 1.88341 3.71935C2.1279 3.19868 2.47756 2.73428 2.91035 2.35539C3.34314 1.97649 3.8497 1.69131 4.39812 1.5178C4.94654 1.3443 5.52495 1.28622 6.09692 1.34724C6.66889 1.40825 7.22203 1.58703 7.72151 1.87233C8.22099 2.15762 8.65598 2.54324 8.99911 3.0049C9.34372 2.54659 9.77923 2.16434 10.2784 1.88207C10.7775 1.59981 11.3295 1.42361 11.8999 1.3645C12.4703 1.3054 13.0467 1.36465 13.5931 1.53856C14.1395 1.71247 14.6441 1.9973 15.0754 2.37521C15.5067 2.75311 15.8553 3.21597 16.0995 3.73481C16.3436 4.25365 16.4781 4.81731 16.4944 5.39049C16.5107 5.96368 16.4085 6.53406 16.1942 7.06594C15.98 7.59783 15.6582 8.07976 15.2491 8.48157" fill="#F84435"/>
<path d="M15.2491 8.47657L8.99911 14.6666L2.74911 8.47657C2.33687 8.07541 2.01215 7.59325 1.7954 7.06043C1.57866 6.52762 1.47458 5.9557 1.48973 5.38068C1.50487 4.80567 1.63891 4.24002 1.88341 3.71935C2.1279 3.19868 2.47756 2.73428 2.91035 2.35539C3.34314 1.97649 3.8497 1.69131 4.39812 1.5178C4.94654 1.3443 5.52495 1.28622 6.09692 1.34724C6.66889 1.40825 7.22203 1.58703 7.72151 1.87233C8.22099 2.15762 8.65599 2.54324 8.99911 3.0049C9.34372 2.54659 9.77923 2.16434 10.2784 1.88207C10.7775 1.59981 11.3295 1.42361 11.8999 1.3645C12.4703 1.3054 13.0467 1.36465 13.5931 1.53856C14.1395 1.71247 14.6441 1.9973 15.0754 2.37521C15.5067 2.75311 15.8553 3.21597 16.0995 3.73481C16.3436 4.25365 16.4781 4.81731 16.4944 5.39049C16.5107 5.96368 16.4085 6.53406 16.1942 7.06594C15.98 7.59783 15.6582 8.07976 15.2491 8.48157" stroke="#F84435" stroke-width="2" stroke-linecap="round" stroke-linejoin="round"/>
</svg>
