<svg width="18" height="16" viewBox="0 0 18 16" fill="none" xmlns="http://www.w3.org/2000/svg">
<path d="M15.2491 8.47669L8.99911 14.6667L2.74911 8.47669C2.33687 8.07554 2.01215 7.59337 1.7954 7.06055C1.57866 6.52774 1.47458 5.95582 1.48973 5.3808C1.50487 4.80579 1.63891 4.24014 1.88341 3.71947C2.1279 3.19881 2.47756 2.7344 2.91035 2.35551C3.34314 1.97661 3.8497 1.69143 4.39812 1.51793C4.94654 1.34442 5.52495 1.28635 6.09692 1.34736C6.66889 1.40837 7.22203 1.58716 7.72151 1.87245C8.22099 2.15774 8.65599 2.54336 8.99911 3.00502C9.34372 2.54671 9.77923 2.16446 10.2784 1.8822C10.7775 1.59993 11.3295 1.42373 11.8999 1.36463C12.4703 1.30552 13.0467 1.36477 13.5931 1.53869C14.1395 1.7126 14.6441 1.99742 15.0754 2.37533C15.5067 2.75324 15.8553 3.2161 16.0995 3.73494C16.3436 4.25378 16.4781 4.81743 16.4944 5.39062C16.5107 5.9638 16.4085 6.53419 16.1942 7.06607C15.98 7.59795 15.6582 8.07988 15.2491 8.48169" stroke="#AFAFAF" stroke-width="2" stroke-linecap="round" stroke-linejoin="round"/>
</svg>
