
<svg width="24" height="18" viewBox="0 0 24 18" fill="none" xmlns="http://www.w3.org/2000/svg">
<path id="Vector" d="M22.112 0.333008H1.88976C1.50667 0.333008 1.13927 0.48519 0.86838 0.756076C0.597495 1.02696 0.445313 1.39436 0.445312 1.77745V16.2219C0.445313 16.605 0.597495 16.9724 0.86838 17.2433C1.13927 17.5142 1.50667 17.6663 1.88976 17.6663H22.112C22.4951 17.6663 22.8625 17.5142 23.1334 17.2433C23.4042 16.9724 23.5564 16.605 23.5564 16.2219V1.77745C23.5564 1.39436 23.4042 1.02696 23.1334 0.756076C22.8625 0.48519 22.4951 0.333008 22.112 0.333008ZM20.9998 16.2219H3.08865L8.1442 10.993L7.1042 9.98912L1.88976 15.3841V2.87523L10.867 11.8091C11.1376 12.0781 11.5037 12.2292 11.8853 12.2292C12.2669 12.2292 12.633 12.0781 12.9036 11.8091L22.112 2.65134V15.2902L16.7964 9.97468L15.7781 10.993L20.9998 16.2219ZM2.83587 1.77745H20.942L11.8853 10.7836L2.83587 1.77745Z" fill="#141414"/>
</svg>
