<svg width="18" height="18" viewBox="0 0 18 18" fill="none" xmlns="http://www.w3.org/2000/svg">
<path d="M13.0098 11.2559H12.2198L11.9398 10.9859C12.9536 9.80988 13.5109 8.30856 13.5098 6.75586C13.5098 5.47028 13.1286 4.21358 12.4143 3.14466C11.7001 2.07574 10.6849 1.24261 9.49721 0.750645C8.30949 0.258676 7.00256 0.129954 5.74168 0.380758C4.4808 0.631562 3.32262 1.25063 2.41357 2.15967C1.50453 3.06871 0.885468 4.2269 0.634664 5.48777C0.38386 6.74865 0.512582 8.05558 1.00455 9.2433C1.49652 10.431 2.32964 11.4462 3.39856 12.1604C4.46748 12.8746 5.72419 13.2559 7.00977 13.2559C8.61977 13.2559 10.0998 12.6659 11.2398 11.6859L11.5098 11.9659V12.7559L16.5098 17.7459L17.9998 16.2559L13.0098 11.2559ZM7.00977 11.2559C4.51977 11.2559 2.50977 9.24586 2.50977 6.75586C2.50977 4.26586 4.51977 2.25586 7.00977 2.25586C9.49977 2.25586 11.5098 4.26586 11.5098 6.75586C11.5098 9.24586 9.49977 11.2559 7.00977 11.2559Z" fill="#39ABA4"/>
</svg>
