
<svg width="12" height="7" viewBox="0 0 12 7" fill="none" xmlns="http://www.w3.org/2000/svg">
<path id="Vector" d="M11.7628 6.60879C11.6047 6.7669 11.4175 6.84595 11.2013 6.84595C10.9854 6.84595 10.7984 6.7669 10.6403 6.60879L6.0079 1.97638L1.35968 6.6246C1.21212 6.77217 1.02767 6.84595 0.806324 6.84595C0.58498 6.84595 0.395257 6.7669 0.237154 6.60879C0.0790514 6.45069 -2.54597e-08 6.2635 -3.49138e-08 6.04721C-4.43495e-08 5.83135 0.0790513 5.64437 0.237154 5.48626L5.56522 0.17401C5.62846 0.110769 5.69697 0.0658677 5.77075 0.0393064C5.84453 0.0131666 5.92358 9.6539e-05 6.0079 9.65353e-05C6.09223 9.65316e-05 6.17128 0.0131666 6.24506 0.0393064C6.31884 0.0658676 6.38735 0.110769 6.45059 0.17401L11.7787 5.50207C11.9262 5.64964 12 5.83135 12 6.04721C12 6.2635 11.9209 6.45069 11.7628 6.60879Z" fill="#39ABA4"/>
</svg>
