<svg xmlns="http://www.w3.org/2000/svg" width="6" height="10" viewBox="0 0 6 10" fill="none">
<path d="M5.65393 9.80237C5.78569 9.67062 5.85156 9.51462 5.85156 9.33439C5.85156 9.1545 5.78569 8.99868 5.65393 8.86693L1.79359 5.00659L5.66711 1.13307C5.79008 1.0101 5.85156 0.85639 5.85156 0.671937C5.85156 0.487484 5.78569 0.329381 5.65393 0.197628C5.52218 0.0658761 5.36619 0 5.18595 0C5.00606 0 4.85024 0.0658761 4.71849 0.197628L0.291615 4.63768C0.238914 4.69038 0.201497 4.74747 0.179362 4.80896C0.157579 4.87044 0.146688 4.93632 0.146688 5.00659C0.146688 5.07686 0.157579 5.14273 0.179362 5.20422C0.201497 5.2657 0.238914 5.32279 0.291615 5.37549L4.73167 9.81555C4.85464 9.93851 5.00606 10 5.18595 10C5.36619 10 5.52218 9.93412 5.65393 9.80237Z" fill="#AFAFAF"/>
</svg>