<svg width="12" height="14" viewBox="0 0 12 14" fill="none" xmlns="http://www.w3.org/2000/svg">
<path d="M10 13.6666C9.44444 13.6666 8.97222 13.4721 8.58333 13.0833C8.19444 12.6944 8 12.2221 8 11.6666C8 11.5888 8.00556 11.5081 8.01667 11.4246C8.02778 11.341 8.04445 11.2661 8.06667 11.1999L3.36667 8.46658C3.17778 8.63325 2.96667 8.76392 2.73333 8.85858C2.5 8.95325 2.25556 9.00036 2 8.99992C1.44444 8.99992 0.972222 8.80547 0.583333 8.41658C0.194444 8.0277 0 7.55547 0 6.99992C0 6.44436 0.194444 5.97214 0.583333 5.58325C0.972222 5.19436 1.44444 4.99992 2 4.99992C2.25556 4.99992 2.5 5.04725 2.73333 5.14192C2.96667 5.23659 3.17778 5.36703 3.36667 5.53325L8.06667 2.79992C8.04445 2.73325 8.02778 2.65836 8.01667 2.57525C8.00556 2.49214 8 2.41147 8 2.33325C8 1.7777 8.19444 1.30547 8.58333 0.916585C8.97222 0.527696 9.44444 0.333252 10 0.333252C10.5556 0.333252 11.0278 0.527696 11.4167 0.916585C11.8056 1.30547 12 1.7777 12 2.33325C12 2.88881 11.8056 3.36103 11.4167 3.74992C11.0278 4.13881 10.5556 4.33325 10 4.33325C9.74444 4.33325 9.5 4.28614 9.26667 4.19192C9.03333 4.0977 8.82222 3.96703 8.63333 3.79992L3.93333 6.53325C3.95556 6.59992 3.97222 6.67503 3.98333 6.75858C3.99444 6.84214 4 6.92259 4 6.99992C4 7.0777 3.99444 7.15836 3.98333 7.24192C3.97222 7.32547 3.95556 7.40036 3.93333 7.46658L8.63333 10.1999C8.82222 10.0333 9.03333 9.90281 9.26667 9.80858C9.5 9.71436 9.74444 9.66703 10 9.66658C10.5556 9.66658 11.0278 9.86103 11.4167 10.2499C11.8056 10.6388 12 11.111 12 11.6666C12 12.2221 11.8056 12.6944 11.4167 13.0833C11.0278 13.4721 10.5556 13.6666 10 13.6666ZM10 2.99992C10.1889 2.99992 10.3473 2.93592 10.4753 2.80792C10.6033 2.67992 10.6671 2.5217 10.6667 2.33325C10.6667 2.14436 10.6027 1.98592 10.4747 1.85792C10.3467 1.72992 10.1884 1.66614 10 1.66659C9.81111 1.66659 9.65267 1.73059 9.52467 1.85859C9.39667 1.98659 9.33289 2.14481 9.33333 2.33325C9.33333 2.52214 9.39733 2.68058 9.52533 2.80858C9.65333 2.93658 9.81156 3.00036 10 2.99992ZM2 7.66658C2.18889 7.66658 2.34733 7.60258 2.47533 7.47458C2.60333 7.34658 2.66711 7.18836 2.66667 6.99992C2.66667 6.81103 2.60267 6.65258 2.47467 6.52458C2.34667 6.39658 2.18844 6.33281 2 6.33325C1.81111 6.33325 1.65267 6.39725 1.52467 6.52525C1.39667 6.65325 1.33289 6.81147 1.33333 6.99992C1.33333 7.18881 1.39733 7.34725 1.52533 7.47525C1.65333 7.60325 1.81156 7.66703 2 7.66658ZM10 12.3333C10.1889 12.3333 10.3473 12.2693 10.4753 12.1413C10.6033 12.0133 10.6671 11.855 10.6667 11.6666C10.6667 11.4777 10.6027 11.3193 10.4747 11.1913C10.3467 11.0633 10.1884 10.9995 10 10.9999C9.81111 10.9999 9.65267 11.0639 9.52467 11.1919C9.39667 11.3199 9.33289 11.4781 9.33333 11.6666C9.33333 11.8555 9.39733 12.0139 9.52533 12.1419C9.65333 12.2699 9.81156 12.3337 10 12.3333Z" fill="#39ABA4"/>
</svg>
