<svg xmlns="http://www.w3.org/2000/svg" width="12" height="8" viewBox="0 0 12 8" fill="none">
<path d="M0.237154 0.814241C0.395257 0.656138 0.582451 0.577087 0.798736 0.577087C1.0146 0.577087 1.20158 0.656138 1.35968 0.814241L5.99209 5.44665L10.6403 0.798431C10.7879 0.650869 10.9723 0.577087 11.1937 0.577087C11.415 0.577087 11.6047 0.656139 11.7628 0.814242C11.9209 0.972344 12 1.15954 12 1.37582C12 1.59169 11.9209 1.77867 11.7628 1.93677L6.43478 7.24902C6.37154 7.31227 6.30303 7.35717 6.22925 7.38373C6.15547 7.40987 6.07642 7.42294 5.99209 7.42294C5.90777 7.42294 5.82872 7.40987 5.75494 7.38373C5.68116 7.35717 5.61265 7.31227 5.54941 7.24902L0.221344 1.92096C0.073781 1.7734 -4.43495e-08 1.59169 -3.49138e-08 1.37582C-2.54597e-08 1.15954 0.079051 0.972344 0.237154 0.814241Z" fill="white"/>
</svg>